<?xml version="1.0" encoding="UTF-8" standalone="no"?>
<!-- Generator: Adobe Illustrator 21.0.2, SVG Export Plug-In . SVG Version: 6.00 Build 0)  -->

<svg
   xmlns:dc="http://purl.org/dc/elements/1.1/"
   xmlns:cc="http://creativecommons.org/ns#"
   xmlns:rdf="http://www.w3.org/1999/02/22-rdf-syntax-ns#"
   xmlns:svg="http://www.w3.org/2000/svg"
   xmlns="http://www.w3.org/2000/svg"
   xmlns:sodipodi="http://sodipodi.sourceforge.net/DTD/sodipodi-0.dtd"
   xmlns:inkscape="http://www.inkscape.org/namespaces/inkscape"
   version="1.1"
   id="Ebene_1"
   x="0px"
   y="0px"
   viewBox="0 0 48 48"
   style="enable-background:new 0 0 48 48;"
   xml:space="preserve"
   sodipodi:docname="icon.svg"
   inkscape:export-filename="D:\work\lik-studio\resources\icon.png"
   inkscape:export-xdpi="2048"
   inkscape:export-ydpi="2048"
   inkscape:version="0.92.4 (5da689c313, 2019-01-14)"><metadata
   id="metadata15"><rdf:RDF><cc:Work
       rdf:about=""><dc:format>image/svg+xml</dc:format><dc:type
         rdf:resource="http://purl.org/dc/dcmitype/StillImage" /><dc:title></dc:title></cc:Work></rdf:RDF></metadata><defs
   id="defs13" /><sodipodi:namedview
   pagecolor="#ffffff"
   bordercolor="#666666"
   borderopacity="1"
   objecttolerance="10"
   gridtolerance="10"
   guidetolerance="10"
   inkscape:pageopacity="0"
   inkscape:pageshadow="2"
   inkscape:window-width="828"
   inkscape:window-height="480"
   id="namedview11"
   showgrid="false"
   inkscape:zoom="4.9166667"
   inkscape:cx="24"
   inkscape:cy="24"
   inkscape:window-x="2588"
   inkscape:window-y="342"
   inkscape:window-maximized="0"
   inkscape:current-layer="Ebene_1" />
<style
   type="text/css"
   id="style2">
	.st0{fill:#15AABF;}
	.st1{fill:#FFFFFF;}
</style>
<path
   class="st0"
   d="M4,0h40c2.2,0,4,1.8,4,4v40c0,2.2-1.8,4-4,4H4c-2.2,0-4-1.8-4-4V4C0,1.8,1.8,0,4,0z"
   id="path4" />
<path
   class="st1"
   d="M24.3,15.8h3.5V17h-5V9.2h1.6V15.8z M31,17h-1.6V9.2H31V17z M35.6,13.7h-0.9V17h-1.6V9.2h1.6v3.2h0.7l2.1-3.2  h1.9l-2.6,3.7l2.8,4.2h-1.9L35.6,13.7z"
   id="path6" />
<path
   class="st1"
   d="M8,20v2h2.3l2.6,7.8l-1.5,2h0c-0.5,0.6-0.5,1.5-0.2,2.1c0.3,0.6,1,1.1,1.8,1.1h13v-2H13c0,0,0,0,0,0l1.5-2h9.4  c0.4,0,0.8-0.2,0.9-0.6l3.1-7c0.3-0.7-0.2-1.4-0.9-1.4H12.4l-0.4-1.3L11.7,20H11H8z M13,36c-1.1,0-2,0.9-2,2s0.9,2,2,2s2-0.9,2-2  S14.1,36,13,36z M24,36c-1.1,0-2,0.9-2,2s0.9,2,2,2s2-0.9,2-2S25.1,36,24,36z"
   id="path8" />
</svg>