<?xml version="1.0" encoding="UTF-8" standalone="no"?>
<!-- Generator: Adobe Illustrator 17.0.0, SVG Export Plug-In . SVG Version: 6.00 Build 0)  -->

<svg
   xmlns:dc="http://purl.org/dc/elements/1.1/"
   xmlns:cc="http://creativecommons.org/ns#"
   xmlns:rdf="http://www.w3.org/1999/02/22-rdf-syntax-ns#"
   xmlns:svg="http://www.w3.org/2000/svg"
   xmlns="http://www.w3.org/2000/svg"
   xmlns:sodipodi="http://sodipodi.sourceforge.net/DTD/sodipodi-0.dtd"
   xmlns:inkscape="http://www.inkscape.org/namespaces/inkscape"
   version="1.1"
   id="Calque_1"
   x="0px"
   y="0px"
   width="36.867001"
   height="36.867001"
   viewBox="-35.863 -2.397 36.867002 36.867"
   enable-background="new -35.863 -2.397 33.572 36.867"
   xml:space="preserve"
   preserveAspectRatio="xMinYMin meet"
   sodipodi:docname="icon.svg"
   inkscape:version="0.92.4 (5da689c313, 2019-01-14)"><metadata
   id="metadata11"><rdf:RDF><cc:Work
       rdf:about=""><dc:format>image/svg+xml</dc:format><dc:type
         rdf:resource="http://purl.org/dc/dcmitype/StillImage" /><dc:title></dc:title></cc:Work></rdf:RDF></metadata><defs
   id="defs9" /><sodipodi:namedview
   pagecolor="#ffffff"
   bordercolor="#666666"
   borderopacity="1"
   objecttolerance="10"
   gridtolerance="10"
   guidetolerance="10"
   inkscape:pageopacity="0"
   inkscape:pageshadow="2"
   inkscape:window-width="1015"
   inkscape:window-height="796"
   id="namedview7"
   showgrid="false"
   inkscape:zoom="6.4013887"
   inkscape:cx="16.785999"
   inkscape:cy="18.4335"
   inkscape:window-x="3125"
   inkscape:window-y="352"
   inkscape:window-maximized="0"
   inkscape:current-layer="Calque_1" />
<path
   d="m -0.70099971,0.31999884 c 0,0 -6.25499999,-2.71700004 -16.72700029,-2.71700004 h -0.003 c -10.471,0 -16.727,2.71700004 -16.727,2.71700004 0,0 -0.56,12.02999916 1.814,18.83099916 4.194,11.961 14.911,15.319 14.911,15.319 h 0.003 0.005 c 0,0 10.7140003,-3.36 14.9100003,-15.319 2.37399999,-6.802 1.81399999,-18.83099916 1.81399999,-18.83099916"
   id="path2"
   inkscape:connector-curvature="0"
   style="fill:#ff0000" />
<polyline
   points="-7.959,10.69 -7.959,17.318 -15.757,17.318 -15.757,25.052 -22.439,25.052 -22.439,17.318  -30.234,17.318 -30.234,10.69 -22.439,10.69 -22.439,2.96 -15.759,2.96 -15.757,10.69 -7.959,10.69 "
   id="polyline4"
   style="fill:#ffffff"
   transform="translate(1.6670003,-1.159668e-6)" />
</svg>